<?xml version="1.0" encoding="utf-8"?>
<!-- Generator: Adobe Illustrator 18.0.0, SVG Export Plug-In . SVG Version: 6.00 Build 0)  -->
<!DOCTYPE svg PUBLIC "-//W3C//DTD SVG 1.1//EN" "http://www.w3.org/Graphics/SVG/1.1/DTD/svg11.dtd">
<svg version="1.1"
	 id="svg7709" xmlns:rdf="http://www.w3.org/1999/02/22-rdf-syntax-ns#" xmlns:dc="http://purl.org/dc/elements/1.1/" xmlns:cc="http://creativecommons.org/ns#" xmlns:inkscape="http://www.inkscape.org/namespaces/inkscape" xmlns:sodipodi="http://sodipodi.sourceforge.net/DTD/sodipodi-0.dtd" xmlns:svg="http://www.w3.org/2000/svg" sodipodi:docname="clasplogohoriz.png" inkscape:version="0.48.2 r9819"
	 xmlns="http://www.w3.org/2000/svg" xmlns:xlink="http://www.w3.org/1999/xlink" x="0px" y="0px" viewBox="18.1 332.6 506.7 176.8"
	 enable-background="new 18.1 332.6 506.7 176.8" xml:space="preserve">
<sodipodi:namedview  pagecolor="#ffffff" id="base" borderopacity="1.0" inkscape:cy="520" inkscape:cx="350" bordercolor="#666666" showgrid="false" inkscape:zoom="0.35" inkscape:window-x="326" inkscape:window-height="1246" inkscape:window-width="1869" inkscape:pageshadow="2" inkscape:window-y="144" inkscape:current-layer="layer1" inkscape:document-units="mm" inkscape:window-maximized="0" inkscape:pageopacity="0.0">
	</sodipodi:namedview>
<g id="layer1" inkscape:groupmode="layer" inkscape:label="Layer 1">
	<g id="g7433" transform="matrix(0.23658996,0,0,-0.23658996,-110.09194,3438.9762)">
		<g id="g6619" transform="translate(757.17073,1861.8537)">
			<path id="rect6151-2-1-5-0-6" inkscape:connector-curvature="0" fill="#800080" d="M131.6,11159.5V10914h24.2v245.4H131.6z
				 M264.8,11159.5v-247.2H289v247.2H264.8z"/>
			<g id="g6213-6-8-4" transform="matrix(-1,0,0,-1,-725.56963,21952.513)">
				<path id="rect6151-2-3-0-0" inkscape:connector-curvature="0" fill="#800080" d="M-803.3,11095.8v24.2H-1058v-24.2H-803.3z
					 M-801.5,11228.9v24.2H-1058v-24.2H-801.5z"/>
			</g>
			<g id="g6241-9-0-2" transform="matrix(-1,0,0,-1,-813.56963,21952.513)">
				<path id="path6208-6-8-5" inkscape:connector-curvature="0" fill="#800080" d="M-904.7,11208.4l-13.4-0.1
					c-32.4-0.3-60.5-24.3-60.7-56c0,0,0-0.1,0-0.1l-0.5-43.2h-119.6h-12.7h-23.9c-0.7-1.6-1.1-3.4-1.2-5.2
					c-0.7-57.7,51.7-102.7,114.4-102.1h0c61.1,0.6,111.2,48.7,115.9,103.5h0.4l0.1,7v0.1l1,82.8L-904.7,11208.4L-904.7,11208.4z"/>
				<path id="path6198-8-8-9" inkscape:connector-curvature="0" fill="#FFFFFF" d="M-931.2,11179.8l-0.8-67.2v-0.1
					c-0.6-41.5-41.3-84.2-90.4-84.6c-47.9-0.5-84.9,30.9-87.8,69.8h131.9c2.7-6.7,10.4-9.9,17.1-7.2c5,2.1,8.3,7,8.1,12.5l0.6,48.9
					v0.1v0C-952.5,11164.4-944,11175.2-931.2,11179.8L-931.2,11179.8z"/>
				<path id="path6196-4-7-7" inkscape:connector-curvature="0" fill="#800080" d="M-1098.9,11211.1c-18.9-0.2-36.2,14-36,33.2
					l0.4,28.4c0.2,19.4,17.7,33,36.5,33.1c8.5,0.1,16.5-2.9,22.9-7.7c6.6,5,14.9,8.1,23.5,8.2c8.5,0.1,16.6-2.9,23-7.7
					c6.6,5,14.9,8.1,23.5,8.2c8.5,0.1,16.5-2.8,22.9-7.7c6.6,5,14.9,8.1,23.5,8.2c18.9,0.2,36.2-14,36-33.2l-0.4-28.4
					c-0.2-19.4-17.7-32.9-36.5-33.1c-8.5-0.1-16.5,2.9-22.9,7.7c-6.6-5-14.9-8.1-23.5-8.2c-8.5-0.1-16.6,2.8-23,7.7
					c-6.6-5-14.9-8.1-23.5-8.2c-8.5-0.1-16.5,2.8-22.9,7.7C-1081.9,11214.2-1090.2,11211.2-1098.9,11211.1L-1098.9,11211.1z"/>
				<path id="path6194-1-4-3" inkscape:connector-curvature="0" fill="#FFFFFF" d="M-1099.1,11237.3c6.7,0.1,10.6,4.4,10.6,7.3
					l0.3,28.4c0,3.1-3.1,6.8-9.6,6.8c-6.7-0.1-10.6-4.3-10.6-7.2l-0.3-28.4C-1108.7,11240.9-1105.6,11237.2-1099.1,11237.3z"/>
				<path id="path6192-2-2-6" inkscape:connector-curvature="0" fill="#FFFFFF" d="M-1052.6,11237.7c6.7,0.1,10.6,4.4,10.6,7.3
					l0.3,28.4c0,3.1-3.1,6.8-9.6,6.8c-6.7-0.1-10.5-4.4-10.6-7.3l-0.4-28.4C-1062.2,11241.3-1059.1,11237.6-1052.6,11237.7
					L-1052.6,11237.7z"/>
				<path id="path6190-6-0-6" inkscape:connector-curvature="0" fill="#FFFFFF" d="M-1006.1,11238.1c6.7,0.1,10.5,4.4,10.6,7.3
					l0.3,28.4c0,3.1-3.1,6.8-9.5,6.8c0,0,0,0,0,0c-6.6-0.1-10.5-4.4-10.6-7.3l-0.3-28.4
					C-1015.7,11241.8-1012.6,11238.1-1006.1,11238.1L-1006.1,11238.1z"/>
				<path id="path3045-9-0-5-3-4-5-4-8-6-3" inkscape:connector-curvature="0" fill="#FFFFFF" d="M-959.7,11238.6
					c6.7,0.1,10.6,4.4,10.6,7.3l0.3,28.4c0,3.1-3.1,6.8-9.6,6.8c-6.7-0.1-10.6-4.4-10.6-7.3l-0.3-28.4
					C-969.3,11242.2-966.2,11238.5-959.7,11238.6z"/>
			</g>
			<path id="rect6151-2-1-3-2" inkscape:connector-curvature="0" fill="#800080" d="M-154.9,10891.8v-246h24.2v246H-154.9z
				 M-21.7,10890v-244.2H2.5v244.2H-21.7z"/>
			<g id="g6335-9-1" transform="translate(1791.1696,137.68869)">
				<path id="path6333-9-7" inkscape:connector-curvature="0" fill="#800080" d="M-1669.2,10778.6v0.4
					c-54.1,3.2-102.1,49.3-101.5,107.2c0.6,59.3,46.4,108.8,103.3,109.4l173.4,2c18.7,0.2,32.8-16.2,32.6-34.4
					c-0.1-8.2-3.1-15.8-7.9-21.8c4.7-6.1,7.5-13.7,7.4-21.8c-0.1-8.4-3.2-16.1-8.2-22.2c4.5-6,7.2-13.5,7.2-21.4
					c-0.1-8.3-3.2-16-8.2-22.1c4.4-6,7.1-13.4,7-21.2c-0.2-17.8-13.8-33.2-31.5-34.2v-0.1l-149.9-18.6c0,0,0,0,0,0
					c-1.6-0.7-3.3-1.1-5.1-1.1l-11.5-0.1L-1669.2,10778.6L-1669.2,10778.6z"/>
				<path id="path3049-5-5-0-68-6-6-5-7-8-1" inkscape:connector-curvature="0" fill="#FFFFFF" d="M-1662.4,10804.1l10.3,0.1
					c1.1,0.4,2.2,0.7,3.4,0.8l149.9,18.6l0.7,0.1h0.7c3.9,0,7.9,3.8,7.9,9.3c0.1,5.4-3,8.4-6.4,8.7c0,0-0.1,0-0.1,0l-84.4-1
					c-1.3,0-2.7,0.1-4,0.5c-6.8,1.8-10.8,8.7-9.1,15.5c1.5,5.6,6.5,9.5,12.3,9.5l84.4,1c0.2,0,0.5-0.1,0.7-0.1
					c3.8,0.2,7.6,3.8,7.7,9.2v0c0.1,5.7-3.3,8.8-6.9,8.8l-84.1-0.9c-6.6-0.2-12.3,4.9-12.9,11.5c0,0,0,0.1,0,0.1
					c-0.1,0.8-0.1,1.7,0,2.5c0,0.4,0.1,0.8,0.2,1.2c0,0,0,0.1,0,0.1c0.1,0.4,0.2,0.8,0.3,1.1c0,0,0,0.1,0,0.1
					c0.1,0.4,0.3,0.7,0.4,1.1c2,4.7,6.6,7.8,11.7,7.8l84.4,1c3.9,0,7.9,3.8,7.9,9.2c0.1,5.7-3.3,8.9-6.9,8.8l-84.4-1
					c-7-0.2-12.8,5.4-13,12.4c-0.2,7,5.4,12.8,12.4,13c0.1,0,0.2,0,0.3,0l44,0.5h0c0.7,0.1,1.4,0.2,2.1,0.2l38.1,0.4
					c3.9,0,7.9,3.8,7.9,9.2c0.1,5.7-3.3,8.9-7,8.8l-173.4-2c-42.3-0.5-77.8-37.8-78.2-84.3
					C-1745.8,10840.6-1704.7,10803.6-1662.4,10804.1L-1662.4,10804.1z"/>
			</g>
			<g id="g6213-0-2" transform="translate(1791.1696,137.68869)">
				<path id="rect6151-2-5-4" inkscape:connector-curvature="0" fill="#800080" d="M-1990.2,10967v-24.2h257.3v24.2H-1990.2z
					 M-1990.2,10833.8v-24.2h255.5v24.2H-1990.2z"/>
			</g>
			<g id="g6241-2-5" transform="translate(1879.1696,137.68869)">
				<path id="path6208-9-1" inkscape:connector-curvature="0" fill="#800080" d="M-1836.1,10922.3l-13.4-0.1
					c-32.4-0.3-60.5-24.3-60.7-56c0,0,0-0.1,0-0.1l-0.5-43.2h-119.6h-12.7h-23.9c-0.7-1.6-1.1-3.4-1.1-5.2
					c-0.7-57.7,51.7-102.7,114.4-102.1h0c61.1,0.6,111.2,48.7,115.9,103.5h0.4l0.1,7v0.1l1,82.8L-1836.1,10922.3L-1836.1,10922.3z"
					/>
				<path id="path6198-6-3" inkscape:connector-curvature="0" fill="#FFFFFF" d="M-1862.6,10893.6l-0.8-67.2v-0.1
					c-0.6-41.5-41.3-84.2-90.4-84.6c-47.9-0.5-84.9,30.9-87.8,69.8h131.9c2.7-6.7,10.4-9.9,17.1-7.2c5,2.1,8.3,7,8.1,12.5l0.6,48.9
					v0.1v0C-1883.9,10878.2-1875.4,10889-1862.6,10893.6L-1862.6,10893.6z"/>
				<path id="path6196-2-9" inkscape:connector-curvature="0" fill="#800080" d="M-2030.3,10924.9c-18.9-0.2-36.2,14-36,33.2
					l0.4,28.4c0.2,19.4,17.7,33,36.5,33.1c8.5,0.1,16.5-2.9,22.9-7.7c6.6,5,14.9,8.1,23.5,8.2c8.5,0.1,16.6-2.9,23-7.7
					c6.6,5,14.9,8.1,23.5,8.2c8.5,0.1,16.5-2.8,22.9-7.7c6.6,5,14.9,8.1,23.5,8.2c18.9,0.2,36.2-14,36-33.2l-0.4-28.4
					c-0.2-19.4-17.7-32.9-36.5-33.1c-8.5-0.1-16.5,2.9-22.9,7.7c-6.6-5-14.9-8.1-23.5-8.2c-8.5-0.1-16.6,2.8-23,7.7
					c-6.6-5-14.9-8.1-23.5-8.2c-8.5-0.1-16.5,2.8-22.9,7.7C-2013.3,10928-2021.6,10925-2030.3,10924.9L-2030.3,10924.9z"/>
				<path id="path6194-2-7" inkscape:connector-curvature="0" fill="#FFFFFF" d="M-2030.5,10951.1c6.7,0.1,10.6,4.4,10.6,7.3
					l0.3,28.4c0,3.1-3.1,6.8-9.6,6.8c-6.7-0.1-10.6-4.3-10.6-7.2l-0.3-28.4C-2040.1,10954.7-2037,10951-2030.5,10951.1z"/>
				<path id="path6192-7-9" inkscape:connector-curvature="0" fill="#FFFFFF" d="M-1984.1,10951.5c6.7,0.1,10.6,4.4,10.6,7.3
					l0.3,28.4c0,3.1-3.1,6.8-9.6,6.8c-6.7-0.1-10.5-4.4-10.6-7.3l-0.4-28.4C-1993.7,10955.2-1990.6,10951.4-1984.1,10951.5
					L-1984.1,10951.5z"/>
				<path id="path6190-4-9" inkscape:connector-curvature="0" fill="#FFFFFF" d="M-1937.6,10951.9c6.7,0.1,10.5,4.4,10.6,7.3
					l0.3,28.4c0,3.1-3.1,6.8-9.5,6.8c0,0,0,0,0,0c-6.6-0.1-10.5-4.4-10.6-7.3l-0.3-28.4
					C-1947.2,10955.6-1944.1,10951.9-1937.6,10951.9L-1937.6,10951.9z"/>
				<path id="path3045-9-0-5-3-4-5-4-0-9" inkscape:connector-curvature="0" fill="#FFFFFF" d="M-1891.1,10952.4
					c6.7,0.1,10.6,4.4,10.6,7.3l0.3,28.4c0,3.1-3.1,6.8-9.6,6.8c-6.7-0.1-10.6-4.4-10.6-7.3l-0.3-28.4
					C-1900.7,10956-1897.6,10952.3-1891.1,10952.4z"/>
			</g>
			<rect id="rect6149-7-0" x="-215.2" y="11105.3" fill="none" width="381.1" height="-246.6"/>
			<g id="g6359-5-5" transform="translate(1888.7696,241.68869)">
				<path id="path6357-1-5" inkscape:connector-curvature="0" fill="#800080" d="M-1876.5,10646v-0.4
					c54.1-3.2,102.1-49.3,101.5-107.2c-0.6-59.3-46.4-108.8-103.3-109.4l-173.4-2c-18.7-0.2-32.8,16.2-32.6,34.4
					c0.1,8.2,3.1,15.8,7.9,21.8c-4.7,6.1-7.5,13.7-7.4,21.8c0.1,8.4,3.2,16.1,8.2,22.2c-4.5,6-7.2,13.5-7.2,21.4
					c0.1,8.3,3.2,16,8.2,22.1c-4.4,6-7.1,13.4-7,21.2c0.2,17.8,13.8,33.2,31.5,34.2v0.1l149.9,18.6c0,0,0,0,0,0
					c1.6,0.7,3.3,1.1,5.1,1.1l11.5,0.1L-1876.5,10646L-1876.5,10646z"/>
				<path id="path3049-5-5-0-68-6-6-5-7-7-9-3" inkscape:connector-curvature="0" fill="#FFFFFF" d="M-1883.4,10620.6l-10.3-0.1
					c-1.1-0.4-2.2-0.7-3.4-0.8l-149.9-18.6l-0.7-0.1h-0.7c-3.9,0-7.9-3.8-7.9-9.3c-0.1-5.4,3-8.4,6.4-8.7c0,0,0.1,0,0.1,0l84.4,1
					c1.3,0,2.7-0.1,4-0.5c6.8-1.8,10.8-8.7,9.1-15.5c-1.5-5.6-6.5-9.5-12.3-9.5l-84.4-1c-0.2,0-0.5,0.1-0.7,0.1
					c-3.8-0.2-7.6-3.8-7.7-9.2v0c-0.1-5.7,3.3-8.8,6.9-8.8l84.1,0.9c6.6,0.2,12.3-4.9,12.9-11.5c0,0,0-0.1,0-0.1
					c0.1-0.8,0.1-1.7,0-2.5c0-0.4-0.1-0.8-0.2-1.2c0,0,0-0.1,0-0.1c-0.1-0.4-0.2-0.8-0.3-1.1c0,0,0-0.1,0-0.1
					c-0.1-0.4-0.3-0.7-0.4-1.1c-2-4.7-6.6-7.8-11.7-7.8l-84.4-1c-3.9,0-7.9-3.8-7.9-9.2c-0.1-5.7,3.3-8.9,6.9-8.8l84.4,1
					c7,0.2,12.8-5.4,13-12.4c0.2-7-5.4-12.8-12.4-13c-0.1,0-0.2,0-0.3,0l-44-0.5h0c-0.7-0.1-1.4-0.2-2.1-0.2l-38.1-0.4
					c-3.9,0-7.9-3.8-7.9-9.2c-0.1-5.7,3.3-8.9,7-8.8l173.4,2c42.3,0.5,77.8,37.8,78.2,84.3
					C-1800,10584.1-1841.1,10621.1-1883.4,10620.6L-1883.4,10620.6z"/>
			</g>
		</g>
		<g id="g7053-6-9" transform="translate(2957.6964,3362.8801)">
			
				<path id="path5960-3-3" sodipodi:nodetypes="cccccccsscccccccccccccccccccccccsccccsccccccccccc" inkscape:connector-curvature="0" fill="#800080" d="
				M-1526.6,9191.2c-32.9,0-63.9,3.1-92.8,9.2h-0.1l-0.1,0c-28.9,6.5-55.1,15.9-78.5,28.5l0,0h0c-31.9,17.4-57.4,40.9-75.6,70.1
				c-18.2,29.3-27.4,62.3-27.4,97.9c0,32.2,8.5,62.3,25.2,89.2c0,0,0,0,0,0.1c16.5,26.8,38.1,48.9,64.7,65.8c0,0,0,0,0,0
				c23.9,15.4,52.1,26.8,84.3,34.6c0,0,0.1,0,0.1,0c32.4,8,65.9,11.9,100.2,11.9c2.7,0,5.5,0,8.2,0c3,0,5.4,0,7.1,0h12.9l0.8-12.8
				l3-50l0.9-14.5h-14.5c-1.7,0-3.7,0-6,0c-2,0-3.9,0-5.6,0c-27,0-50-1.7-68.5-5h-0.1l-0.1,0c-18.4-3.1-36.3-8.2-53.7-15.5l-0.1,0
				l-0.1,0c-22.3-9-39.4-22.8-52.4-42c-13.1-19.4-19.3-39.3-19.3-61c0-27,6.1-48.5,17.8-65.9c12.3-17.7,28.3-31.1,48.7-40.8l0,0h0
				c16.1-7.8,34.5-13.6,55.3-17.1c21.1-3.6,43.4-5.4,67.1-5.4c4,0,8.4,0,13.4,0c5,0,8.4,0,10.1,0l14.3-0.2l-0.8-14.7l-4.5-50
				l-1.1-12.4h-12.5h-9.7L-1526.6,9191.2L-1526.6,9191.2z"/>
			<path id="path5936-6-6" sodipodi:nodetypes="cccscccsccsccccccccsscccc" inkscape:connector-curvature="0" fill="#800080" d="
				M-1462.1,9192.6l1.2,14.8c-0.1-1.3,0.1,2.7,0.2,7.5s0.1,11.8,0.2,20.9c0.1,18.1,0.2,44.6,0.3,79.4l0,0v0
				c0.5,69.9,0.7,127.8,0.7,173.8c0,29.5-0.2,66.9-0.4,111.9v0v0c0,45.2-0.4,95.9-1.1,152.1l-0.2,13.8h13.8h59h13.8l-0.2-13.8
				c-0.5-38.3-0.9-82.6-1.1-133.1v0c-0.2-50.2-0.3-92.6-0.3-127.2c0-75.4,0.2-141.2,0.7-197.7c0.5-56.5,0.8-99.1,0.8-102.6
				c-26.6,0-28.6,0-72.6,0H-1462.1L-1462.1,9192.6z"/>
			<path id="path4914-6-9-4-0-9-7" inkscape:connector-curvature="0" fill="#800080" d="M-1145.1,9251.9c4.7,0,10.7,0.1,17.8,0.4
				c3,0.1,6.4,0.2,9.6,0.3v11.4v0.1l0,0.1c0.2,14.6,0.4,34.3,0.4,59.1v32.1c0,8.6-0.1,19.4-0.2,29.8c-10.6-1.1-23.7-2.7-42-5.3h0
				h-0.1c-26.6-3.6-48.7-8.9-66-15.6l-0.1,0l-0.1,0c-12.2-4.6-22.9-11.3-32.6-20.5c0,0,0,0,0-0.1c0,0,0,0-0.1,0
				c-8.2-8.1-11.8-16.7-11.8-28.9c0-14.4,3.6-24.2,10.3-31.9c7.4-8.2,17.8-14.9,32-19.8h0c11.1-3.9,23.6-6.8,37.4-8.7
				c0.1,0,0.2,0,0.2,0C-1176,9252.7-1161,9251.9-1145.1,9251.9L-1145.1,9251.9z M-1161.9,9180.9c-21.2,0-42.6,1.9-64,5.8
				c-21.5,3.9-40.4,9.5-56.7,17.1c0,0,0,0,0,0c-21.6,10-39.7,24-53.5,41.7l-0.1,0.1l0,0.1c-14.1,18.4-21.1,40.9-21.1,65.8
				c0,26.4,8.4,50.4,24.8,70v0c16.3,19.4,38.6,34.6,66,46c0,0,0,0,0,0c17.5,7.2,39.7,13.3,67.1,18.7c0,0,0.1,0,0.1,0
				c23.9,4.8,50.6,8.5,79.8,11.2c-2.1,11.3-5.8,20.6-10.6,27.9c-6.6,10-16.1,17.6-29.9,23.2l0,0c-9.7,4-20.7,6.8-33.2,8.4l-0.1,0
				h-0.1c-12.6,1.9-27.6,2.8-45,2.8c-11,0-20.3-0.2-27.9-0.7c0,0,0,0,0,0c-7.8-0.5-18.4-1.1-31.8-1.9l-16.2-0.9l1.9,16.2l6,49.6
				l1.3,11.2l11.3,0.8c4,0.3,11.3,0.7,22.3,1.2v0c11.7,0.8,27,1.2,46.2,1.2c30.3,0,57.5-3.2,81.8-9.8c0.1,0,0.1,0,0.2,0v0
				c24.8-6.4,46.1-17.2,63-32.5h0l0,0c15.8-14.4,27.8-32.4,35.7-53.4c0,0,0,0,0-0.1c8.2-21.6,11.7-50.3,11.7-87.3
				c0-61.7-0.2-112-0.4-150.8v0c-0.2-38.8-0.4-60-0.4-62.6v-12.4l-12.3-1.2c-3.5-0.4-14.4-1.2-35.1-2.7v0
				C-1102.3,9181.8-1129.1,9180.9-1161.9,9180.9L-1161.9,9180.9z"/>
			<path id="path5944-2-9" inkscape:connector-curvature="0" fill="#800080" d="M-953.1,9183.1c-12.6,0-25.6,0.6-39.1,1.9
				c-5.8,0.4-17.1,0.9-26.9,1.2c-4.9,0.2-9.5,0.3-13,0.4c-1.7,0.1-3.2,0.1-4.3,0.1c-1.1,0-0.6-0.1-3.4,0.2l-12.1,1.7l0.4,12.2
				l1.6,50.8l0.5,14.8l14.7-1.6c-0.1,0,8.8-0.8,18.3-1.7c9.4-0.8,20.4-1.8,27.8-2.4c14.9-1,29.7-1.5,44.3-1.5
				c7.9,0,18.7,0.7,32.1,2.2c12.7,1.4,22.7,3.9,29.9,7.1h0c10.9,4.8,18,10.3,22.2,15.8c4.1,5.5,6.2,11.8,6.2,20.6
				c0,7.9-1.8,12.4-4.6,15.8l-0.1,0.1l-0.1,0.1c-4.1,5-10.2,10.4-18.5,15.8l-0.1,0.1l-0.1,0.1c-8.8,6-21.9,12.8-38.8,20l-0.1,0
				l-0.1,0.1c-17.5,7.9-32.4,15.4-44.7,22.8l-0.1,0l-0.1,0c-18.1,11.1-32.6,24.6-42.8,40.5l0,0.1l-0.1,0.1
				c-10.1,16.2-15.1,35.2-15.1,55.8c0,20.9,5.8,40.4,17.3,57.3l0,0.1l0.1,0.1c11.5,16.5,26.8,29.8,45.4,39.7c0,0,0.1,0,0.1,0.1
				c16.1,8.7,33.8,14.4,52.8,17.1v0c18.5,2.8,36.5,4.2,53.9,4.2c14.6,0,27.4,1.1,38.7,0.5c3-0.2,17.5,0.1,30.1,0.4
				c6.3,0.2,12.3,0.4,16.9,0.5c2.3,0.1,4.2,0.1,5.6,0.2c1.4,0,1.4,0.1,2.9,0.1h13.2l0.4-13.2l1.6-52.8l0.4-14.1h-14.1
				c-1.8,0-1.7,0.1-3.2,0.1c-1.4,0.1-3.4,0.2-5.7,0.3c-4.7,0.2-10.8,0.6-17.3,0.9c-13.1,0.7-27.6,1.5-34.7,2.1v0
				c-11.7,0.9-27.1-0.5-44-0.5c0,0,0,0,0,0c-10.6,0-20.7-0.9-30.3-2.8c-9.2-1.8-16.7-4.3-22.4-7.3v0h0c-9.1-4.6-14.6-9.7-17.7-14.7
				c0,0,0,0,0-0.1c-3.4-6-4.7-10.9-4.7-15.2c0-7,1.8-11.8,6.2-16.7c5.5-6.1,11.9-11.2,19.4-15.5l0.1,0l0.1,0
				c9.6-5.6,23.2-12.6,40.7-20.7c17.9-8.3,31-15,39.9-20.6c18.6-11.7,33.3-25.1,43.5-40.4h0c0,0,0.1-0.1,0.1-0.2
				c10.8-15.8,16.1-34.7,16.1-55.3c0-20.6-5.2-39.8-15.5-56.5c-10-16.1-23.3-29.4-39.5-39.5c-16.7-10.4-36.1-18.1-58.2-23.3h-0.1
				l-0.1,0C-903.3,9185.6-927.2,9183.1-953.1,9183.1L-953.1,9183.1z"/>
			<path id="path4918-4-3-0-9-8-7" inkscape:connector-curvature="0" fill="#800080" d="M-663.3,9265.5c18,0.7,36,2.5,54,5.8
				c0.1,0,0.1,0,0.2,0c22.5,4.3,40.6,10,54.2,16.7v0c23.5,11.5,40.6,26.4,52.3,44.7c11.6,18.1,17.6,40.8,17.6,69.1
				c0,22.2-5.1,40.9-15.1,57c-10.3,16.6-23.5,29.4-39.9,39c0,0-0.1,0-0.1,0.1c-15.2,8.6-32.8,15-52.9,18.9h-0.1l-0.1,0
				c-20.1,4.3-42.1,6.4-66.2,6.4c0,0,0,0,0,0c-1.1,0-2.2,0-3.3,0c-0.1-7.5-0.2-13.4-0.5-30.9c0,0,0-0.1,0-0.1
				c-0.2-25-0.4-68.5-0.4-130.3v-54.3v-0.2C-663.4,9290-663.3,9277.8-663.3,9265.5L-663.3,9265.5z M-749.1,9019.9l0.8,14.5
				c0,0.2,0.2,11.1,0.3,28.3c0.1,17.2,0.3,42,0.4,74.3v0v0c0.5,64.4,0.8,129,0.8,193.9c0,32.5-0.2,70.3-0.4,113.4c0,0,0,0,0,0
				c-0.2,43.3-0.6,89.8-1.1,139.5l-0.1,13.4l13.4,0.4c8.1,0.3,16.1,0.4,23.9,0.4c8,0,14.1,0,18.3,0c52.7,0,93.8-2.7,124.2-8.4
				c30.3-5.7,58.1-16,83.1-30.7c0,0,0,0,0.1,0c27-15.8,48.6-37.2,64.2-63.8c0,0,0,0,0-0.1c15.7-26.6,23.5-57.4,23.5-91.2
				c0-40.6-9.1-76.2-27.8-105.8l0,0v0c-18.4-28.8-43.5-51.8-74.5-68.5h0l0,0c-26.7-14.1-56-24-87.6-29.8
				c-26.1-4.7-51.1-7.3-75.2-8.1l1.4-157.9l0.1-13.8h-13.8h-59.3H-749.1z"/>
			
				<path id="path4969-9-2-7-1-8-6" sodipodi:type="arc" sodipodi:cx="-447.07318" sodipodi:rx="60.243904" sodipodi:ry="57.07317" sodipodi:cy="427.2561" fill="#800080" stroke="#800080" stroke-width="1.4299" d="
				M-277,9246.5c0-28.7-24.6-52-54.9-52s-54.9,23.3-54.9,52s24.6,52,54.9,52S-277,9275.2-277,9246.5z"/>
		</g>
	</g>
</g>
</svg>
